<?xml version="1.0" encoding="UTF-8" standalone="no"?>
<!-- Generator: Adobe Illustrator 15.0.0, SVG Export Plug-In . SVG Version: 6.00 Build 0)  -->

<svg
   xmlns:dc="http://purl.org/dc/elements/1.1/"
   xmlns:cc="http://creativecommons.org/ns#"
   xmlns:rdf="http://www.w3.org/1999/02/22-rdf-syntax-ns#"
   xmlns:svg="http://www.w3.org/2000/svg"
   xmlns="http://www.w3.org/2000/svg"
   xmlns:sodipodi="http://sodipodi.sourceforge.net/DTD/sodipodi-0.dtd"
   xmlns:inkscape="http://www.inkscape.org/namespaces/inkscape"
   id="طبقة_1"
   enable-background="new 0 0 595.279 280.629"
   xml:space="preserve"
   viewBox="0 0 547.80262 133.8596"
   version="1.1"
   y="0px"
   x="0px"
   sodipodi:docname="rss_icon.svg"
   width="547.80261"
   height="133.8596"
   inkscape:version="0.92.2 5c3e80d, 2017-08-06"><defs
     id="defs32" /><sodipodi:namedview
     pagecolor="#ffffff"
     bordercolor="#666666"
     borderopacity="1"
     objecttolerance="10"
     gridtolerance="10"
     guidetolerance="10"
     inkscape:pageopacity="0"
     inkscape:pageshadow="2"
     inkscape:window-width="1156"
     inkscape:window-height="658"
     id="namedview30"
     showgrid="false"
     fit-margin-top="0"
     fit-margin-left="0"
     fit-margin-right="0"
     fit-margin-bottom="0"
     inkscape:zoom="0.52412399"
     inkscape:cx="274.7873"
     inkscape:cy="61.339301"
     inkscape:window-x="0"
     inkscape:window-y="0"
     inkscape:window-maximized="0"
     inkscape:current-layer="طبقة_1" /><path
     id="rect3890"
     d="m 420.0178,2.0028001 h 118.01 c 4.293,0 7.773,3.484 7.773,7.782 V 124.0748 c 0,4.297 -3.48,7.783 -7.773,7.783 h -118.01 c -4.291,0 -7.77,-3.484 -7.77,-7.783 V 9.7848001 c 0,-4.299 3.48,-7.783 7.77,-7.783 z"
     inkscape:connector-curvature="0"
     style="fill:#ec671d;stroke:#8c8670;stroke-width:4.00360012" /><path
     id="rect3890_1_"
     d="M 25.325802,2.0028001 H 379.5358 c 12.885,0 23.332,3.484 23.332,7.782 V 124.0748 c 0,4.297 -10.447,7.783 -23.332,7.783 H 25.325802 c -12.88,0 -23.3240001,-3.484 -23.3240001,-7.783 V 9.7848001 c -0.005,-4.299 10.4420001,-7.783 23.3220001,-7.783 z"
     inkscape:connector-curvature="0"
     style="fill:#ec671d;stroke:#8c8670;stroke-width:4.00360012" /><g
     id="layer4"
     transform="translate(-22.852198,-67.7942)"><g
       id="g7525"
       transform="translate(1.596,-1)"><g
         enable-background="new    "
         id="g10"
         style="fill:#532510"><path
           d="m 101.68,176.18 v -72.556 h 32.734 c 6.069,0 10.708,0.595 13.917,1.782 3.21,1.187 5.794,3.389 7.76,6.606 1.966,3.218 2.949,7.136 2.949,11.755 0,4.025 -0.753,7.497 -2.255,10.416 -1.504,2.92 -3.573,5.29 -6.203,7.103 -1.678,1.154 -3.977,2.111 -6.898,2.869 2.34,0.893 4.043,1.785 5.112,2.676 0.724,0.598 1.77,1.867 3.143,3.814 1.37,1.951 2.288,3.451 2.75,4.508 l 9.51,21.025 H 142.008 L 131.51,154.006 c -1.33,-2.871 -2.515,-4.734 -3.555,-5.592 -1.417,-1.121 -3.021,-1.684 -4.813,-1.684 h -1.733 v 29.447 H 101.68 v -0.01 z m 19.72,-43.16 h 8.281 c 0.896,0 2.629,-0.329 5.202,-0.991 1.3,-0.297 2.362,-1.056 3.187,-2.275 0.824,-1.22 1.237,-2.623 1.237,-4.207 0,-2.343 -0.651,-4.14 -1.952,-5.396 -1.303,-1.253 -3.744,-1.882 -7.326,-1.882 h -8.628 v 14.75 z"
           id="path4"
           inkscape:connector-curvature="0" /><path
           d="m 199.91,152.17 18.686,-1.338 c 0.404,3.465 1.229,6.105 2.473,7.918 2.022,2.939 4.914,4.406 8.672,4.406 2.804,0 4.964,-0.75 6.48,-2.252 1.519,-1.498 2.275,-3.242 2.275,-5.223 0,-1.879 -0.721,-3.561 -2.165,-5.047 -1.446,-1.484 -4.798,-2.885 -10.059,-4.205 -8.615,-2.213 -14.757,-5.148 -18.427,-8.811 -3.698,-3.662 -5.55,-8.331 -5.55,-14.007 0,-3.728 0.947,-7.249 2.84,-10.565 1.894,-3.314 4.739,-5.922 8.541,-7.819 3.8,-1.896 9.012,-2.846 15.628,-2.846 8.122,0 14.315,1.725 18.579,5.171 4.265,3.448 6.798,8.934 7.607,16.456 l -18.516,1.236 c -0.49,-3.268 -1.521,-5.642 -3.098,-7.126 -1.576,-1.485 -3.751,-2.227 -6.525,-2.227 -2.283,0 -4.004,0.553 -5.159,1.657 -1.157,1.105 -1.733,2.449 -1.733,4.033 0,1.155 0.478,2.194 1.43,3.117 0.925,0.958 3.12,1.849 6.59,2.673 8.582,2.112 14.733,4.248 18.447,6.409 3.714,2.162 6.415,4.843 8.106,8.042 1.688,3.201 2.536,6.779 2.536,10.738 0,4.652 -1.126,8.943 -3.381,12.869 -2.255,3.928 -5.404,6.904 -9.45,8.932 -4.047,2.029 -9.147,3.045 -15.304,3.045 -10.811,0 -18.296,-2.377 -22.458,-7.127 -4.18,-4.75 -6.54,-10.79 -7.09,-18.12 z"
           id="path6"
           inkscape:connector-curvature="0" /><path
           d="m 296.88,152.17 18.688,-1.338 c 0.402,3.465 1.229,6.105 2.473,7.918 2.021,2.939 4.912,4.406 8.672,4.406 2.803,0 4.961,-0.75 6.479,-2.252 1.518,-1.498 2.279,-3.242 2.279,-5.223 0,-1.879 -0.725,-3.561 -2.168,-5.047 -1.447,-1.484 -4.799,-2.885 -10.059,-4.205 -8.615,-2.213 -14.754,-5.148 -18.426,-8.811 -3.701,-3.662 -5.549,-8.331 -5.549,-14.007 0,-3.728 0.945,-7.249 2.84,-10.565 1.891,-3.314 4.736,-5.922 8.539,-7.819 3.803,-1.896 9.012,-2.846 15.629,-2.846 8.121,0 14.314,1.725 18.58,5.171 4.264,3.448 6.799,8.934 7.605,16.456 l -18.512,1.237 c -0.494,-3.267 -1.525,-5.642 -3.102,-7.125 -1.574,-1.484 -3.748,-2.227 -6.525,-2.227 -2.283,0 -4.004,0.553 -5.158,1.657 -1.156,1.104 -1.734,2.449 -1.734,4.033 0,1.154 0.48,2.193 1.432,3.117 0.926,0.957 3.121,1.849 6.59,2.672 8.584,2.112 14.734,4.248 18.447,6.411 3.715,2.161 6.418,4.84 8.107,8.042 1.691,3.199 2.537,6.781 2.537,10.738 0,4.654 -1.129,8.943 -3.383,12.867 -2.256,3.928 -5.404,6.904 -9.449,8.934 -4.047,2.029 -9.146,3.045 -15.305,3.045 -10.809,0 -18.295,-2.377 -22.457,-7.125 -4.17,-4.76 -6.53,-10.8 -7.08,-18.13 z"
           id="path8"
           inkscape:connector-curvature="0" /></g><g
         enable-background="new    "
         id="g18"
         style="fill:#ffffff"><path
           d="M 92.837,167.83 V 95.274 h 32.734 c 6.068,0 10.708,0.595 13.917,1.781 3.21,1.187 5.794,3.39 7.76,6.607 1.965,3.218 2.949,7.136 2.949,11.755 0,4.025 -0.752,7.497 -2.255,10.418 -1.504,2.921 -3.572,5.288 -6.203,7.102 -1.678,1.155 -3.977,2.112 -6.898,2.872 2.339,0.892 4.043,1.783 5.112,2.674 0.722,0.597 1.769,1.867 3.142,3.815 1.371,1.951 2.289,3.451 2.75,4.508 l 9.511,21.025 h -22.191 l -10.498,-22.172 c -1.33,-2.869 -2.515,-4.735 -3.555,-5.592 -1.417,-1.121 -3.021,-1.684 -4.812,-1.684 h -1.732 v 29.446 h -19.73 v -0.02 z m 19.723,-43.16 h 8.279 c 0.896,0 2.63,-0.329 5.203,-0.99 1.3,-0.298 2.362,-1.057 3.187,-2.276 0.823,-1.22 1.235,-2.623 1.235,-4.207 0,-2.343 -0.65,-4.14 -1.952,-5.395 -1.301,-1.254 -3.743,-1.882 -7.325,-1.882 h -8.627 v 14.75 h 0.01 z"
           id="path12"
           inkscape:connector-curvature="0" /><path
           d="m 191.07,143.82 18.686,-1.336 c 0.404,3.465 1.229,6.105 2.472,7.92 2.023,2.938 4.913,4.406 8.673,4.406 2.803,0 4.965,-0.752 6.481,-2.254 1.517,-1.5 2.275,-3.24 2.275,-5.221 0,-1.883 -0.725,-3.564 -2.167,-5.049 -1.447,-1.485 -4.8,-2.888 -10.061,-4.208 -8.613,-2.209 -14.756,-5.145 -18.425,-8.808 -3.7,-3.661 -5.55,-8.33 -5.55,-14.007 0,-3.729 0.946,-7.25 2.839,-10.565 1.893,-3.315 4.74,-5.922 8.542,-7.819 3.8,-1.896 9.01,-2.846 15.629,-2.846 8.121,0 14.315,1.724 18.578,5.171 4.264,3.448 6.797,8.933 7.606,16.455 l -18.514,1.238 c -0.492,-3.268 -1.522,-5.642 -3.1,-7.125 -1.576,-1.486 -3.751,-2.227 -6.525,-2.227 -2.284,0 -4.004,0.553 -5.16,1.657 -1.155,1.105 -1.732,2.45 -1.732,4.033 0,1.155 0.477,2.194 1.43,3.118 0.924,0.957 3.12,1.848 6.59,2.672 8.585,2.112 14.732,4.248 18.446,6.41 3.714,2.162 6.417,4.842 8.106,8.042 1.69,3.202 2.537,6.78 2.537,10.741 0,4.648 -1.126,8.939 -3.381,12.867 -2.254,3.928 -5.404,6.902 -9.452,8.932 -4.046,2.031 -9.146,3.045 -15.305,3.045 -10.809,0 -18.294,-2.377 -22.456,-7.127 -4.19,-4.74 -6.54,-10.78 -7.09,-18.11 z"
           id="path14"
           inkscape:connector-curvature="0" /><path
           d="m 288.04,143.82 18.686,-1.336 c 0.404,3.465 1.227,6.105 2.471,7.92 2.023,2.938 4.914,4.406 8.672,4.406 2.803,0 4.963,-0.752 6.48,-2.254 1.518,-1.5 2.277,-3.24 2.277,-5.221 0,-1.883 -0.725,-3.564 -2.166,-5.049 -1.447,-1.485 -4.801,-2.888 -10.059,-4.208 -8.613,-2.209 -14.756,-5.145 -18.426,-8.808 -3.701,-3.661 -5.549,-8.33 -5.549,-14.007 0,-3.729 0.945,-7.25 2.84,-10.565 1.891,-3.315 4.737,-5.922 8.54,-7.819 3.801,-1.896 9.012,-2.846 15.629,-2.846 8.121,0 14.316,1.724 18.58,5.171 4.262,3.448 6.797,8.933 7.607,16.455 l -18.514,1.238 c -0.492,-3.268 -1.525,-5.642 -3.102,-7.125 -1.572,-1.484 -3.748,-2.227 -6.523,-2.227 -2.283,0 -4.004,0.553 -5.158,1.657 -1.156,1.105 -1.734,2.45 -1.734,4.033 0,1.155 0.477,2.194 1.43,3.118 0.926,0.957 3.121,1.848 6.59,2.672 8.586,2.112 14.732,4.248 18.447,6.41 3.713,2.162 6.416,4.842 8.109,8.042 1.689,3.202 2.537,6.78 2.537,10.741 0,4.648 -1.129,8.939 -3.383,12.867 -2.254,3.928 -5.404,6.902 -9.451,8.932 -4.047,2.031 -9.146,3.045 -15.305,3.045 -10.811,0 -18.295,-2.377 -22.457,-7.127 -4.17,-4.74 -6.53,-10.78 -7.08,-18.11 z"
           id="path16"
           inkscape:connector-curvature="0" /></g></g></g><g
     id="g25"
     style="fill:#ffffff;stroke:#b66713;stroke-width:3.39400005;stroke-linejoin:round;stroke-opacity:0.41100003"
     transform="translate(-22.852198,-67.7942)"><path
       id="circle26"
       d="m 478.56,169.83 c 0,-6.729 -5.46,-12.185 -12.194,-12.185 -6.739,0 -12.2,5.455 -12.2,12.185 0,6.729 5.461,12.183 12.2,12.183 6.73,0.01 12.19,-5.44 12.19,-12.17 z"
       inkscape:connector-curvature="0" /><path
       id="path28"
       d="m 450.36,117.69 v 20.32 c 26.666,0 48.283,21.939 48.283,49.004 h 20.02 c 0,-38.28 -30.58,-69.32 -68.3,-69.32 z"
       inkscape:connector-curvature="0" /><path
       id="path30"
       d="m 450.36,103.35 c 45.527,0 82.434,37.458 82.434,83.667 h 20.609 c 0,-57.76 -46.135,-104.58 -103.04,-104.58 v 20.91 z"
       inkscape:connector-curvature="0" /></g><metadata
     id="metadata27"><rdf:RDF><cc:Work><dc:format>image/svg+xml</dc:format><dc:type
           rdf:resource="http://purl.org/dc/dcmitype/StillImage" /><cc:license
           rdf:resource="http://creativecommons.org/publicdomain/zero/1.0/" /><dc:publisher><cc:Agent
             rdf:about="http://openclipart.org/"><dc:title>Openclipart</dc:title></cc:Agent></dc:publisher><dc:title></dc:title></cc:Work><cc:License
         rdf:about="http://creativecommons.org/publicdomain/zero/1.0/"><cc:permits
           rdf:resource="http://creativecommons.org/ns#Reproduction" /><cc:permits
           rdf:resource="http://creativecommons.org/ns#Distribution" /><cc:permits
           rdf:resource="http://creativecommons.org/ns#DerivativeWorks" /></cc:License></rdf:RDF></metadata></svg>